PathFileType	4	(X/Y/Z)	Patient4_TMGait_0pt5_01_left_12.trc.trc
DataRate	CameraRate	NumFrames	NumMarkers	Units	OrigDataRate	OrigDataStartFrame	OrigNumFrames
76.502732240437	76.502732240437	4	33	mm	76.502732240437	124	       141
Frame#	Time	L.ASIS			Sacral			L.Shoulder			Chest			R.Shoulder			Neck			R.ASIS			R.Thigh.Superior			R.Thigh.Lateral			R.Thigh.Inferior			R.Patella			L.Thigh.Superior			L.Thigh.Lateral			L.Thigh.Inferior			L.Patella			L.Shank.Superior			L.Shank.Lateral			L.Shank.Inferior			R.Shank.Superior			R.Shank.Lateral			R.Shank.Inferior			R.Heel			R.Midfoot.Superior			R.Midfoot.Lateral			R.Toe			L.Heel			L.Midfoot.Lateral			L.Midfoot.Superior			L.Toe			L.Elbow			L.Wrist			R.Elbow			R.Wrist			
		X1	Y1	Z1	X2	Y2	Z2	X3	Y3	Z3	X4	Y4	Z4	X5	Y5	Z5	X6	Y6	Z6	X7	Y7	Z7	X8	Y8	Z8	X9	Y9	Z9	X10	Y10	Z10	X11	Y11	Z11	X12	Y12	Z12	X13	Y13	Z13	X14	Y14	Z14	X15	Y15	Z15	X16	Y16	Z16	X17	Y17	Z17	X18	Y18	Z18	X19	Y19	Z19	X20	Y20	Z20	X21	Y21	Z21	X22	Y22	Z22	X23	Y23	Z23	X24	Y24	Z24	X25	Y25	Z25	X26	Y26	Z26	X27	Y27	Z27	X28	Y28	Z28	X29	Y29	Z29	X30	Y30	Z30	X31	Y31	Z31	X32	Y32	Z32	X33	Y33	Z33	

124	17.637785714286	757.973772148652	957.451806045603	333.317440511535	567.223980193252	1003.014542605088	518.361406355455	703.548384561165	1431.732819990500	317.060650056131	832.678613404376	1362.023853167066	457.645208142030	778.722118875112	1433.332908923138	644.050325922902	728.101987283544	1491.952934061745	466.743327909103	804.171577045262	936.025177513741	605.175290706138	804.270024888449	724.004859677417	576.916039186728	708.266227645476	628.224959368757	644.981901408524	764.486514595544	564.578446190691	560.480066296158	746.981280339043	479.217263331920	565.959064362334	838.142900849162	768.932920850099	364.665620361306	780.673972550452	640.496594582971	297.281454365977	881.099943078198	579.478318140213	360.173144699615	905.551749013640	513.539688600075	360.694487337925	888.932662959820	441.509664135729	351.259390498416	822.668684326638	312.113667927344	300.683923020204	906.341207555542	213.130475296188	360.325770059323	710.192525076788	393.772954144590	574.469462113249	628.908331678270	298.498798004105	635.925096041183	658.823163354771	200.280217041131	572.845554214495	510.816570600426	42.216292583571	538.449690513052	679.648372140075	96.183901858447	583.191546870797	589.173112805218	35.741078092541	618.559873982457	797.501307183859	43.555790533651	620.181644940585	818.193470955700	37.610916480136	399.534050200021	893.134779492647	41.083754218335	320.217508386980	965.639301670434	115.077253577562	342.390784787298	1098.331264939323	82.181600273357	318.446254743227	576.752572440947	1094.541969915129	232.531526876944	563.875669060723	834.656711270140	243.680424214397	943.623440201478	1142.342585740245	747.568123324536	1132.658838979850	1263.614399939580	641.974091695672	
125	17.650857142857	759.337954968508	955.960469475568	331.969221711993	568.290620719281	1001.818237370412	516.553321824380	703.957830184539	1430.394552961838	314.935861173979	833.089896212967	1361.045719705948	455.714586698441	778.756410702644	1432.401006572889	641.985334876478	728.271846188674	1490.863383477190	464.577154922451	805.216010996212	935.043031296928	603.893195024081	804.177450431479	722.605151966580	576.120616111090	707.029275644907	627.479772717265	644.012076591395	762.868831334333	563.153015661191	559.798803441050	744.375874249401	477.795864276041	565.018208938544	839.307939927408	767.016601349528	362.723007477080	779.730349716437	638.449252387784	296.740654087144	880.746583824190	577.572069317615	358.760785145562	904.034312690571	510.967561930855	359.964413283157	886.953149413418	438.649246702275	350.773148535710	818.923454506364	309.920783330693	300.614459447413	901.386595068073	209.981349947530	360.367077693334	706.883062218872	392.801131302359	573.748135327935	624.744200919705	298.390793207178	635.535631914157	653.512002464847	199.735440555935	572.539337546650	504.307840973926	42.150274197440	538.558006068978	673.215929116714	96.057202768951	583.190280838351	582.703905097324	35.592305675826	618.575488976934	791.066006917992	43.215202303761	620.272837049948	809.784870948184	37.442728207085	400.036984566657	884.488596145243	39.064301947551	320.273630263217	959.530089796823	110.401106471338	342.777827409714	1091.294178080692	73.203695410971	317.999223118159	578.115446759582	1092.877468125266	229.857510896397	568.329918766786	832.679331129835	240.666485089593	945.470813633098	1142.094200116515	744.359307986129	1131.983130021489	1265.947768596843	637.286758612396	
126	17.663928571429	760.831034815635	954.598487565606	330.540628156775	569.441196793933	1000.706212042098	514.623113219362	704.476649470612	1429.054867759547	312.634944393503	833.587320605939	1360.135971507924	453.676906334434	778.804098489119	1431.594331576775	639.788625350350	728.502447846299	1489.841664403661	462.208216701567	806.295392537351	934.064074981277	602.497879124132	804.202385495680	721.218870340488	575.203260419320	705.922331715143	626.756396443991	642.891155952448	761.398933578618	561.767355514204	558.954761542430	741.940649201786	476.365832479859	563.929757225867	840.518505099734	765.246132237837	360.978169910285	779.215806577371	636.721700717468	296.070912888092	880.618452225910	575.930672045323	357.531371906507	902.668309138607	508.619920705905	359.355287492332	885.230126449912	436.021131682610	350.276269467656	815.633147104008	307.948111587006	300.353830470377	896.753345965976	207.104962895534	360.417116722945	703.703224840249	391.841633535745	572.917774179955	620.660348775485	298.349329574708	635.089526033885	648.269590153538	199.237221636871	572.212439725577	497.810414022071	42.150045527722	538.707089182981	666.834269580910	95.951736147149	583.193442567822	576.271101879496	35.460792051586	618.587110657277	784.672099148827	42.855069084484	620.365839525057	801.747728006455	37.326253990793	400.333659383373	876.325795417057	37.369599323871	320.262979743482	953.606575999788	106.238202479967	343.272978417431	1084.525987080967	65.179590984881	317.890139655111	580.069150222640	1090.996463517819	226.956836763567	573.549319674069	830.495915123820	237.311764784347	946.724597425204	1141.502001248045	741.245218171447	1131.435836009168	1267.157096225184	632.881643627150	
127	17.677000000000	762.381344944795	953.447875455828	329.004692175380	570.623212818639	999.752655835866	512.580530600532	705.103735715745	1427.783242808971	310.187443157745	834.173428863313	1359.329188965414	451.538493044188	778.914840973722	1430.959902374275	637.471211434599	728.821412455702	1488.941742602867	459.665388370257	807.350633451701	933.135251691805	600.963957785537	804.292146448990	719.900915481998	574.121491512228	704.945010072542	626.083243036680	641.599151727513	760.104257432265	560.466546382890	557.925842357156	739.739732840577	474.938279387877	562.703775818256	841.749665221795	763.759644483704	359.466742899350	779.178100905152	635.415699935631	295.266668966925	880.738424110380	574.645819169339	356.480653198171	901.507874289490	506.602815781341	358.843842228157	883.799583338234	433.731814261474	349.756882161745	812.842953353444	306.306255014601	299.910052193546	892.489196271562	204.630406921852	360.466903178228	700.687173123650	390.918645327471	571.980043834753	616.676567942438	298.420845512383	634.580567823063	643.115293488922	198.830496326832	571.870366173266	491.323512907000	42.308699738599	538.899787624274	660.518191932782	95.889705938615	583.207148305516	569.870079985328	35.402558060585	618.593396056019	778.311157646271	42.462503537876	620.460576311057	794.249144014091	37.270240689432	400.473259734045	868.779097832303	36.073058783110	320.207240993516	947.902124078062	102.791501207828	343.822237435115	1078.092477943617	58.512945986345	318.022951076231	582.639546088882	1088.971594877503	223.868378639818	579.519837642973	828.196786191042	233.626593977845	947.357073884528	1140.568963165123	738.228891750821	1131.056482463336	1267.189584302496	628.782654856040	
